<?xml version="1.0" encoding="utf-8"?>
<svg width="649px" height="145px" viewBox="0 0 649 145" version="1.1" xmlns:xlink="http://www.w3.org/1999/xlink" xmlns="http://www.w3.org/2000/svg">
  <desc>Created with Lunacy</desc>
  <path d="M71.6315 0L137.473 67.1917L71.5564 134.45L0.0107949 134.45L65.9338 67.1652L0 0L71.6315 0ZM35.3971 6.64775L15.8333 6.65401L35.3971 26.5838L35.3971 6.64775ZM42.0197 6.64776L62.6367 6.64776L42.0197 27.6845L42.0197 6.64776ZM275.742 8.89453L275.742 53.7067C281.248 47.0183 288.719 43.6742 298.288 43.6742C306.022 43.6742 312.314 46.3495 317.164 51.5665C322.014 56.7834 324.373 63.4718 324.373 71.7654L324.373 111.896L310.61 111.896L310.61 74.5745C310.61 63.7393 304.449 56.5159 295.142 56.5159C283.083 56.5159 275.742 65.1152 275.742 81.2629L275.742 111.896L262.11 111.896L262.11 8.89453L275.742 8.89453ZM476.678 92.9007L476.678 8.89453L463.084 8.89453L463.084 93.7033C463.084 105.876 471.079 113.768 482.746 113.768C487.243 113.706 491.655 112.512 495.591 110.291L492.97 98.6527C490.518 99.8837 487.836 100.568 485.105 100.659C480.218 100.659 476.678 97.5826 476.678 92.9007ZM46.7254 32.3698L67.1767 11.4924L67.1767 32.3698L46.7254 32.3698ZM73.7991 11.6951L73.7991 32.3698L94.0558 32.3698L73.7991 11.6951ZM351.305 17.0021C356.013 17.0021 359.873 20.8135 360.027 25.6155C360.027 30.5649 356.478 34.2149 351.376 34.2149C346.273 34.2149 342.584 30.6031 342.584 25.6155C342.738 20.8135 346.597 17.0021 351.305 17.0021ZM209.678 20.4462C227.374 20.3986 240.341 30.1732 243.497 45.6807L229.452 48.6236C227.879 39.1261 219.884 32.839 209.397 32.839C198.911 32.839 192.226 38.4572 192.226 46.4833C192.226 52.7704 195.634 56.1146 203.367 57.7198L222.374 61.8666C237.448 65.2108 244.92 73.3324 244.92 86.3461C244.92 94.7735 241.774 101.462 235.613 106.411C229.452 111.361 221.325 113.768 211.27 113.768C201.57 113.768 193.312 111.494 186.627 106.813C180.058 102.363 175.78 95.1513 174.961 87.1487L189.941 83.9383C192.038 95.1748 200.559 101.061 212.618 101.061C224.153 101.061 231.1 95.5761 231.1 87.1487C231.1 80.3265 227.692 77.2499 218.779 75.2434L199.585 71.259C184.773 67.781 177.432 59.6212 177.432 46.9133C177.432 39.021 180.316 32.581 186.215 27.8036C192.113 23.0262 199.978 20.4462 209.678 20.4462ZM93.292 39.0247L73.7991 39.0247L73.7991 58.9173L93.292 39.0247ZM47.6189 39.0248L67.1767 39.0248L67.1767 58.9536L47.6189 39.0248ZM78.0868 64.0227L98.884 42.7976L98.884 64.0227L78.0868 64.0227ZM417.075 43.7121C425.82 43.6742 433.291 47.0184 439.714 53.573C446.137 60.1276 449.283 68.555 449.283 78.7214C449.283 88.8877 446.137 97.4489 439.714 104.003C433.827 110.352 425.602 113.894 417.037 113.769C407.05 113.769 399.185 110.424 393.443 103.736L393.443 144L379.848 144L379.848 45.5852L393.48 45.5852L393.48 53.745C399.379 47.0566 407.244 43.7121 417.075 43.7121ZM105.507 44.0504L105.507 64.0227L125.079 64.0227L105.507 44.0504ZM597.534 45.4609L614.575 70.6093L631.615 45.4609L648 45.4609L624.668 79.3902L648 111.877L631.615 111.877L614.575 87.9513L597.534 111.896L581.281 111.896L604.613 79.4093L581.281 45.4609L597.534 45.4609ZM358.154 111.896L358.182 45.5469L344.55 45.5469L344.55 111.896L358.154 111.896ZM517.482 82.7248L517.482 45.5469L503.812 45.5469L503.812 85.5913C503.812 93.9709 506.041 100.803 510.891 106.02C515.74 111.236 522.032 113.778 529.897 113.778Q544.054 113.778 552.312 103.745L552.312 111.896L565.944 111.896L565.944 45.5469L552.349 45.5469L552.349 76.132C552.349 92.2797 545.14 100.879 533.081 100.879C523.643 100.879 517.482 93.56 517.482 82.7248ZM399.828 62.3921C403.765 58.2718 409.17 55.9552 414.809 55.9713C420.507 55.8357 426.005 58.1154 429.996 62.2679C434.059 66.4147 436.025 71.8514 436.025 78.7213C436.025 85.5913 434.078 91.1617 430.014 95.3085C425.951 99.4554 420.97 101.462 414.809 101.452C409.198 101.457 403.813 99.1967 399.828 95.1652C395.512 90.8847 393.406 85.4002 393.406 78.7118C393.406 72.0234 395.512 66.5389 399.828 62.3921ZM78.7353 70.6777L98.884 70.6777L98.884 91.2437L78.7353 70.6777ZM124.754 70.6777L105.507 70.6777L105.507 90.3168L124.754 70.6777ZM73.9072 75.2325L73.9072 95.5958L93.8685 95.5958L73.9072 75.2325ZM47.3595 95.5959L67.2847 75.2543L67.2847 95.5959L47.3595 95.5959ZM46.855 102.244L67.2847 102.244L67.2847 123.092L46.855 102.244ZM93.8252 102.244L73.9072 102.244L73.9072 122.563L93.8252 102.244ZM42.243 107.03L42.243 127.792L62.5934 127.792L42.243 107.03ZM15.8225 127.796L35.6205 107.581L35.6205 127.792L15.8225 127.796Z" id="LOGO" fill="gray" fill-rule="evenodd" stroke="none" />
</svg>