<svg width="145" height="80" viewBox="0 0 145 80" fill="none" xmlns="http://www.w3.org/2000/svg">
  <path d="M72.4822 75.0974L67.1298 62.933L59.4682 80H85.8241L77.9202 62.7063L72.4822 75.0974Z" fill="#6FB1C8"></path>
  <path d="M86.1376 27.4036C84.1492 27.4036 82.3461 28.5726 81.555 30.3862L72.4822 51.0026L63.4095 30.3862C62.6112 28.5726 60.8081 27.4036 58.8268 27.4036L17.3758 27.3682C21.2529 32.4479 27.3038 35.4376 33.7253 35.4376H55.0779C56.2895 35.4376 57.3871 36.1531 57.8717 37.2584L72.4822 70.5208L87.0927 37.2584C87.5773 36.1531 88.6749 35.4376 89.8936 35.4376H111.645C118.067 35.4376 124.111 32.455 127.995 27.3682L86.1376 27.4036Z" fill="#FFCD00"></path>
  <path d="M9.10838 10.7758L3.57066 0H0L9.10838 17.7471L18.2096 0H14.639L9.10838 10.7758Z" fill="#94989B"></path>
  <path d="M59.4539 45.441L56.2254 38.0871C56.0329 37.655 55.6053 37.3716 55.1278 37.3716H25.016V37.3787C28.9002 42.4584 34.944 45.4481 41.3655 45.4481H59.4539V45.441Z" fill="#4C86A0"></path>
  <path d="M63.8442 55.4518L60.302 47.3823H32.6562V47.3894C36.5404 52.4691 42.5842 55.4518 49.0057 55.4518H63.8442Z" fill="#6FB1C8"></path>
  <path d="M89.8294 37.3716C89.3519 37.3716 88.9172 37.655 88.7319 38.0871L85.5033 45.441H103.998C110.419 45.441 116.463 42.4584 120.347 37.3716V37.3645H89.8294V37.3716Z" fill="#4C86A0"></path>
  <path d="M84.6552 47.3823L81.113 55.4518H96.3507C102.772 55.4518 108.816 52.4691 112.7 47.3894V47.3823H84.6552Z" fill="#6FB1C8"></path>
  <path d="M76.3878 37.5488H68.5765L72.4822 46.4259L76.3878 37.5488Z" fill="#4C86A0"></path>
  <path d="M27.5176 0L18.4163 17.7471H21.987L27.5176 6.97131L33.0553 17.7471H36.626L27.5176 0Z" fill="#94989B"></path>
  <path d="M59.2971 4.81756C59.2971 3.49981 58.7626 2.30959 57.8931 1.41692C57.0236 0.55259 55.8262 0.0212402 54.5006 0.0212402H43.2327V3.18808H54.5077C55.0708 3.18808 55.4485 3.44313 55.6552 3.6415C55.8334 3.81862 56.1398 4.22245 56.1398 4.81047C56.1398 5.44101 55.755 6.02903 55.1706 6.28408C54.9639 6.38327 54.7358 6.43286 54.5077 6.43286L43.2327 6.44703V17.7683H46.4185V9.60679H49.6043C50.7518 9.60679 51.7496 10.2161 52.3055 11.13L52.3839 11.2859L55.7265 17.7754H59.2971L55.1135 9.5572C55.5982 9.5076 56.0543 9.38008 56.4891 9.17462C58.1497 8.41656 59.2971 6.74458 59.2971 4.81756Z" fill="#94989B"></path>
  <path d="M70.1659 0H66.9801V17.7471H70.1659V0Z" fill="#94989B"></path>
  <path d="M85.931 0L76.8226 17.7471H80.3932L85.931 6.97131L91.4616 17.7471H95.0322L85.931 0Z" fill="#94989B"></path>
  <path d="M116.328 11.3071L101.667 0.0779313V17.7754H104.853V6.53914L119.521 17.7754V0.0283386L116.328 0V11.3071Z" fill="#94989B"></path>
  <path d="M127.168 0.0283203V3.19516H134.495V17.7754H137.681V3.19516H145V0.0283203H127.168Z" fill="#94989B"></path>
</svg>